<?xml version="1.0" standalone="no"?>
<!DOCTYPE svg PUBLIC "-//W3C//DTD SVG 20010904//EN"
 "http://www.w3.org/TR/2001/REC-SVG-20010904/DTD/svg10.dtd">
<svg version="1.0" xmlns="http://www.w3.org/2000/svg"
 width="512.000000pt" height="512.000000pt" viewBox="0 0 512.000000 512.000000"
 preserveAspectRatio="xMidYMid meet">

<g transform="translate(0.000000,512.000000) scale(0.100000,-0.100000)"
fill="#000000" stroke="none">
<path d="M2360 4950 c-168 -18 -355 -65 -479 -121 l-64 -29 -751 0 c-462 0
-765 -4 -786 -10 -41 -11 -94 -61 -109 -103 -8 -20 -11 -484 -11 -1493 0
-1618 -5 -1506 66 -1560 l37 -29 228 -3 227 -3 4 173 c4 192 11 219 80 285 69
66 99 73 335 73 l211 0 -33 97 c-19 54 -44 147 -56 206 -19 94 -19 110 -7 125
8 9 29 82 47 162 102 456 195 795 236 866 28 48 86 89 148 105 36 9 69 7 178
-10 227 -35 277 -40 491 -53 295 -17 586 1 933 57 106 17 148 14 205 -15 67
-34 106 -90 140 -197 32 -104 150 -572 196 -783 15 -69 34 -130 42 -137 12
-10 11 -26 -7 -120 -12 -59 -37 -152 -56 -206 l-33 -97 211 0 c201 0 215 -1
262 -24 28 -12 67 -41 87 -64 55 -61 68 -118 68 -294 l0 -149 228 3 229 3 35
27 c73 56 69 -56 66 1584 l-3 1470 -25 36 c-53 78 8 72 -865 78 l-780 5 -55
26 c-84 40 -212 78 -340 100 -132 23 -401 32 -530 19z m-992 -550 l-53 -80
-417 0 -418 0 0 80 0 80 470 0 470 0 -52 -80z m2712 0 l0 -80 -139 0 -138 0
-37 58 c-20 31 -44 67 -52 80 l-16 22 191 0 191 0 0 -80z m560 0 l0 -80 -160
0 -160 0 0 80 0 80 160 0 160 0 0 -80z m-3520 -480 l0 -80 -160 0 -160 0 0 80
0 80 160 0 160 0 0 -80z m3360 0 l0 -80 -240 0 -240 0 0 80 0 80 240 0 240 0
0 -80z m-3394 -452 c-3 -29 -6 -65 -6 -80 l0 -28 -300 0 -300 0 0 80 0 80 306
0 307 0 -7 -52z m3554 -28 l0 -80 -240 0 -240 0 0 80 0 80 240 0 240 0 0 -80z
m-3840 -480 l0 -80 -160 0 -160 0 0 80 0 80 160 0 160 0 0 -80z m3600 0 l0
-80 -196 0 -195 0 7 73 c3 39 9 75 11 80 2 4 87 7 189 7 l184 0 0 -80z m-3339
-442 c6 -24 20 -60 30 -80 l19 -38 -315 0 -315 0 0 80 0 80 285 0 284 0 12
-42z m3579 -38 l0 -80 -315 0 -315 0 19 38 c10 20 24 56 30 80 l12 42 284 0
285 0 0 -80z"/>
<path d="M1822 3229 c-109 -21 -232 -112 -232 -171 0 -31 31 -68 56 -68 9 0
49 12 88 26 102 38 232 38 330 0 37 -14 79 -26 92 -26 31 0 64 33 64 65 0 62
-136 156 -255 175 -68 11 -83 11 -143 -1z"/>
<path d="M3149 3230 c-141 -24 -267 -131 -239 -204 15 -40 51 -43 144 -10 106
37 230 39 321 5 93 -35 120 -37 139 -10 25 37 20 73 -16 112 -48 49 -116 86
-194 102 -75 16 -87 16 -155 5z"/>
<path d="M1803 2945 c-45 -27 -86 -88 -98 -143 -25 -121 96 -255 215 -239 104
14 172 86 178 190 4 75 -22 134 -81 181 -32 26 -48 31 -105 34 -58 3 -73 -1
-109 -23z"/>
<path d="M3135 2954 c-133 -69 -156 -261 -42 -347 93 -69 203 -58 275 28 109
133 20 335 -149 335 -30 0 -67 -7 -84 -16z"/>
<path d="M2386 2379 c-25 -37 11 -96 80 -129 94 -46 227 -10 267 71 13 29 14
37 3 54 -12 18 -26 20 -174 23 -154 2 -161 2 -176 -19z"/>
<path d="M700 1126 c0 -8 5 -18 10 -21 6 -3 10 3 10 14 0 12 -4 21 -10 21 -5
0 -10 -6 -10 -14z"/>
<path d="M476 958 c15 -52 38 -99 100 -206 51 -87 65 -118 60 -138 -17 -67
-93 -88 -144 -41 -21 19 -97 129 -147 212 -10 16 -20 24 -23 17 -6 -18 42
-117 99 -204 36 -54 49 -83 44 -97 -21 -67 -129 -10 -233 124 -34 44 31 -77
74 -138 24 -34 34 -58 34 -85 0 -46 18 -65 75 -81 43 -12 223 -15 274 -5 l31
6 0 163 c0 161 0 163 -24 179 -26 16 -109 137 -170 249 -37 65 -64 90 -50 45z"/>
<path d="M4587 738 c-7 -13 -37 -63 -67 -113 -29 -49 -68 -109 -86 -132 -31
-37 -34 -48 -34 -106 0 -48 4 -68 18 -79 28 -25 79 -48 108 -48 14 0 39 -11
56 -25 22 -19 41 -25 74 -25 68 0 113 30 153 100 8 14 23 41 34 60 18 31 13
28 -40 -24 -68 -67 -97 -85 -133 -86 -27 0 -50 16 -50 35 0 6 27 53 60 105 54
86 99 185 88 196 -3 2 -31 -38 -63 -90 -79 -129 -124 -176 -165 -176 -38 0
-90 47 -90 80 0 12 22 59 49 104 84 141 132 246 111 246 -5 0 -16 -10 -23 -22z"/>
<path d="M1986 226 c-3 -13 -9 -31 -12 -40 -6 -15 48 -16 586 -16 538 0 592 1
586 16 -3 9 -9 27 -12 40 l-6 24 -568 0 -568 0 -6 -24z"/>
</g>
</svg>
